<svg width="425" height="394" viewBox="0 0 425 394" fill="none" xmlns="http://www.w3.org/2000/svg">
  <path d="M310.175 240.184C368.864 192.189 407.522 138.18 424.768 110.825C425.727 109.257 423.481 107.596 422.264 109.093C373.52 168.859 317.921 212.243 317.921 212.243C259.513 259.559 204.147 283.662 204.147 283.662C145.528 309.941 102.12 315.44 100.623 315.674H100.552C54.2192 324.847 35.6157 304.137 35.6157 304.137C20.1713 290.214 25.4365 259.091 29.438 243.272C29.8124 241.517 27.5659 240.558 26.6533 242.056C17.1526 257.36 -0.772219 290.589 2.01245 319.137C5.33534 352.741 43.6889 356.134 53.33 356.438C54.383 356.438 55.1318 357.561 54.6872 358.544C44.0633 383.021 21.9966 383.559 21.9966 383.559H1.49764C0.678616 383.559 0 384.238 0 385.057V391.843C0 392.662 0.678616 393.341 1.49764 393.341H130.529C131.348 393.341 132.026 392.662 132.026 391.843V384.542C132.026 383.723 131.348 383.044 130.529 383.044H105.584C90.888 380.868 97.0657 357.28 98.4932 352.46C98.6336 351.945 99.0782 351.547 99.6164 351.407C165.676 337.319 240.722 290.612 256.541 280.292C258.273 279.239 260.542 279.918 261.291 281.79C268.148 298.451 291.572 367.904 294.286 374.012C296.93 379.885 292.25 382.904 290.893 383.653C290.753 383.723 290.448 383.793 290.214 383.793H283.288C282.469 383.793 281.79 384.472 281.79 385.291V391.913C281.79 392.732 282.469 393.411 283.288 393.411H416.554C417.373 393.411 418.052 392.732 418.052 391.913V385.127C418.052 384.238 417.233 383.559 416.32 383.629C371.274 388.45 363.505 362.99 357.936 355.525C352.296 347.99 339.332 315.604 339.332 315.604L309.73 241.915C309.496 241.307 309.637 240.628 310.175 240.184ZM20.5457 317.265L17.2228 312.14L12.4023 315.908L13.6894 309.964L7.5818 309.215L12.7767 305.986L8.93903 301.236L14.9764 302.523L15.7252 296.485L19.0481 301.68L23.8686 297.913L22.5114 303.786L28.6189 304.535L23.424 307.765L27.2617 312.585L21.2244 311.228L20.5457 317.265ZM47.199 333.622L52.6982 340.549L44.0399 338.583L42.9869 347.405L38.2366 339.94L31.2398 345.369L33.2055 336.781L24.3132 335.728L31.8482 330.978L26.2789 324.051L35.0073 326.017L36.0603 317.289L40.8107 324.73L47.8074 319.301L45.8418 327.889L54.734 328.942L47.199 333.622ZM88.6883 338.607L94.5619 346.071L85.2952 343.965L84.172 353.372L79.0472 345.393L71.5825 351.196L73.6183 342L64.1177 340.876L72.1675 335.822L66.2237 328.427L75.5606 330.463L76.6838 321.126L81.8085 329.106L89.2733 323.232L87.2375 332.499L96.7381 333.552L88.6883 338.607ZM130.716 336.922L123.415 335.26L122.502 342.655L118.501 336.407L112.557 340.993L114.218 333.692L106.754 332.873L113.072 328.872L108.392 322.998L115.693 324.66L116.605 317.265L120.677 323.513L126.55 318.927L124.889 326.228L132.354 327.047L126.036 331.048L130.716 336.922ZM166.191 325.409L159.569 323.911L158.82 330.627L155.123 324.987L149.764 329.129L151.191 322.577L144.475 321.758L150.209 318.131L145.996 312.866L152.619 314.293L153.438 307.577L157.065 313.287L162.424 309.145L160.996 315.697L167.782 316.516L161.979 320.143L166.191 325.409ZM196.588 311.158L190.411 309.8L189.662 316.119L186.269 310.69L181.308 314.691L182.665 308.443L176.417 307.694L181.776 304.301L177.868 299.34L184.046 300.698L184.795 294.45L188.188 299.785L193.149 295.877L191.791 302.055L198.039 302.804L192.681 306.197L196.588 311.158ZM222.61 297.141L217.415 295.924L216.807 301.283L213.952 296.766L209.74 300.089L210.956 294.894L205.598 294.216L210.114 291.361L206.791 287.219L212.056 288.342L212.665 283.077L215.543 287.593L219.685 284.27L218.562 289.465L223.827 290.074L219.381 292.929L222.61 297.141ZM248.234 280.971L243.858 279.988L243.32 284.434L240.909 280.667L237.446 283.451L238.429 279.075L233.983 278.537L237.75 276.127L234.965 272.593L239.341 273.576L239.88 269.13L242.29 272.898L245.753 270.113L244.841 274.489L249.216 275.027L245.449 277.437L248.234 280.971ZM275.355 264.427L271.283 263.514L270.745 267.726L268.475 264.099L265.152 266.743L266.065 262.601L261.853 262.157L265.48 259.887L262.836 256.494L266.978 257.477L267.422 253.265L269.715 256.775L273.038 254.224L272.126 258.296L276.338 258.834L272.804 261.104L275.355 264.427ZM300.791 245.308L296.79 244.396L296.252 248.467L294.075 245.004L290.87 247.578L291.782 243.577L287.71 243.038L291.174 240.862L288.623 237.633L292.695 238.546L293.139 234.474L295.316 237.937L298.545 235.457L297.632 239.458L301.704 239.903L298.241 242.079L300.791 245.308Z" fill="url(#paint0_linear)"/>
  <path d="M418.826 37.792C401.813 -16.9888 261.901 47.199 261.901 47.199C391.47 14.4148 386.58 53.447 386.58 53.447C403.147 111.083 282.447 174.662 282.447 174.662L215.989 10.4835C205.201 -13.1043 196.169 10.4835 196.169 10.4835L83.3311 292.18C107.878 288.553 123.253 283.662 123.253 283.662C123.253 283.662 186.832 113.095 190.014 105.981C193.197 98.8208 195.748 105.981 195.748 105.981L242.525 231.947C443.466 112.604 418.826 37.792 418.826 37.792ZM318.32 34.0011L316.144 33.4629L315.91 35.7327L314.693 33.8607L312.891 35.2179L313.429 33.0417L311.159 32.8076L313.031 31.5908L311.674 29.789L313.85 30.3272L314.084 28.0573L315.301 29.9294L317.103 28.5721L316.565 30.7484L318.835 30.9824L316.963 32.1992L318.32 34.0011ZM346.986 30.14L343.756 29.3912L343.382 32.714L341.65 29.9294L339.1 31.9652L339.778 28.7359L336.549 28.3615L339.334 26.5597L337.298 24.009L340.457 24.7578L340.831 21.435L342.633 24.1962L345.184 22.1604L344.505 25.3897L347.735 25.7641L344.95 27.4957L346.986 30.14ZM378.717 31.5908L373.662 30.4676L373.054 35.5923L370.34 31.2164L366.268 34.4457L367.391 29.3912L362.266 28.7827L366.642 25.9981L363.483 21.9264L368.444 23.0496L369.052 17.9249L371.861 22.3008L375.932 19.1417L374.809 24.1962L379.934 24.8046L375.558 27.5191L378.717 31.5908ZM315.956 174.218L311.955 173.305L311.51 177.377L309.334 173.913L306.105 176.464L307.017 172.392L302.946 171.948L306.409 169.771L303.858 166.542L307.86 167.455L308.398 163.383L310.551 166.823L313.71 164.272L312.797 168.274L316.869 168.812L313.476 170.988L315.956 174.218ZM346.33 152.806L342.329 151.893L341.791 155.965L339.615 152.502L336.385 155.052L337.298 151.051L333.226 150.513L336.689 148.336L334.209 145.107L338.21 146.02L338.655 141.948L340.831 145.411L344.061 142.861L343.148 146.862L347.22 147.4L343.756 149.577L346.33 152.806ZM371.065 128.469L367.531 127.721L367.087 131.348L365.215 128.259L362.36 130.529L363.109 126.995L359.482 126.55L362.571 124.585L360.301 121.73L363.834 122.549L364.279 118.922L366.221 121.917L369.076 119.741L368.257 123.274L371.884 123.649L368.795 125.614L371.065 128.469ZM395.355 102.775L390.464 101.652L389.856 106.707L387.141 102.401L383.14 105.56L384.263 100.599L379.208 100.061L383.537 97.3465L380.378 93.345L385.339 94.398L385.948 89.4371L388.662 93.6492L392.57 90.5603L391.517 95.4511L396.478 96.0595L392.266 98.774L395.355 102.775ZM409.161 74.9755L404.107 73.8523L403.498 79.0472L400.714 74.6011L396.572 77.8304L397.695 72.7759L392.57 72.0973L396.946 69.3126L393.717 65.2409L398.841 66.3641L399.45 61.1692L402.235 65.6387L406.306 62.4094L405.183 67.4639L410.378 68.0724L406.002 70.9038L409.161 74.9755ZM404.785 40.9277L409.302 46.6608L402.211 45.0696L401.392 52.3004L397.484 46.1226L391.751 50.6389L393.342 43.5485L386.182 42.7295L392.289 38.8216L387.773 33.0885L394.863 34.6797L395.776 27.4489L399.59 33.6033L405.323 29.087L403.732 36.1773L410.963 37.09L404.785 40.9277Z" fill="url(#paint1_linear)"/>
  <defs>
  <linearGradient id="paint0_linear" x1="432.567" y1="509.42" x2="-16.4628" y2="-17.9642" gradientUnits="userSpaceOnUse">
  <stop stop-color="#493BDB"/>
  <stop offset="1" stop-color="#7367F0"/>
  </linearGradient>
  <linearGradient id="paint1_linear" x1="56.7547" y1="231.709" x2="468.094" y2="-50.8038" gradientUnits="userSpaceOnUse">
  <stop stop-color="#493BDB"/>
  <stop offset="1" stop-color="#7367F0"/>
  </linearGradient>
  </defs>
  </svg>
  